<?xml version="1.0" encoding="UTF-8" standalone="no"?>
<svg
   xmlns:dc="http://purl.org/dc/elements/1.1/"
   xmlns:cc="http://creativecommons.org/ns#"
   xmlns:rdf="http://www.w3.org/1999/02/22-rdf-syntax-ns#"
   xmlns:svg="http://www.w3.org/2000/svg"
   xmlns="http://www.w3.org/2000/svg"
   xmlns:sodipodi="http://sodipodi.sourceforge.net/DTD/sodipodi-0.dtd"
   xmlns:inkscape="http://www.inkscape.org/namespaces/inkscape"
   width="512"
   height="512"
   viewBox="0 0 512 512"
   version="1.1"
   id="svg4"
   sodipodi:docname="favicon.svg"
   inkscape:export-filename="D:\Liyas\Projects\lvr\assets\images\logo-filled.png"
   inkscape:export-xdpi="96"
   inkscape:export-ydpi="96"
   inkscape:version="0.92.2 (5c3e80d, 2017-08-06)">
  <metadata
     id="metadata10">
    <rdf:RDF>
      <cc:Work
         rdf:about="">
        <dc:format>image/svg+xml</dc:format>
        <dc:type
           rdf:resource="http://purl.org/dc/dcmitype/StillImage" />
        <dc:title></dc:title>
      </cc:Work>
    </rdf:RDF>
  </metadata>
  <defs
     id="defs8" />
  <sodipodi:namedview
     pagecolor="#ffffff"
     bordercolor="#666666"
     borderopacity="1"
     objecttolerance="10"
     gridtolerance="10"
     guidetolerance="10"
     inkscape:pageopacity="0"
     inkscape:pageshadow="2"
     inkscape:window-width="1600"
     inkscape:window-height="1133"
     id="namedview6"
     showgrid="false"
     inkscape:zoom="1.3977273"
     inkscape:cx="307.12782"
     inkscape:cy="286.56812"
     inkscape:window-x="-9"
     inkscape:window-y="-9"
     inkscape:window-maximized="1"
     inkscape:current-layer="svg4"
     inkscape:pagecheckerboard="true" />
  <g
     inkscape:groupmode="layer"
     id="layer1"
     inkscape:label="Layer 1" />
  <g
     id="g851"
     transform="matrix(1.024,0,0,1.024,-6.144,-6.144)">
    <path
       inkscape:connector-curvature="0"
       id="path812"
       d="M 142,196 A 59.999903,60.000202 0 0 0 82.00001,256 59.999903,60.000202 0 0 0 142,316 59.999903,60.000202 0 0 0 202,256 59.999903,60.000202 0 0 0 142,196 Z"
       style="opacity:1;fill:#ffffff;fill-opacity:1;stroke:none;stroke-width:0.44862944;stroke-opacity:1" />
    <path
       inkscape:connector-curvature="0"
       id="path812-1"
       d="M 369.99999,196 A 59.999903,60.000202 0 0 0 310,256 a 59.999903,60.000202 0 0 0 60,60 59.999903,60.000202 0 0 0 60,-60 59.999903,60.000202 0 0 0 -60.00001,-60 z"
       style="opacity:1;fill:#ffffff;fill-opacity:1;stroke:none;stroke-width:0.44862944;stroke-opacity:1" />
    <path
       style="fill:#ff7143;fill-rule:nonzero;stroke-width:15.15151501"
       inkscape:connector-curvature="0"
       id="path2"
       d="m 369.42424,309.30303 c -30.60606,0 -55.40909,-23.84849 -55.40909,-53.31818 0,-29.4394 24.80303,-53.28788 55.40909,-53.28788 30.62121,0 55.42424,23.84848 55.42424,53.28788 0,29.46969 -24.80303,53.31818 -55.42424,53.31818 m -226.81818,0.0152 c -30.65151,0 -55.454545,-23.84848 -55.454545,-53.33333 0,-29.45455 24.803035,-53.31818 55.454545,-53.31818 30.62121,0 55.37879,23.86363 55.37879,53.33333 0,29.4697 -24.80303,53.33333 -55.37879,53.33333 M 474.56061,104.48485 H 36.136364 C 19.787879,104.48485 6,117.74242 6,134.12121 v 243.75758 c 0,16.36363 13.787879,29.63636 30.787879,29.63636 H 156.56061 c 12.83333,0 23.83333,-7.57576 28.45454,-18.31818 l 34.83333,-80.9394 C 225.72727,294.62121 239.69697,285 256,285 c 16.30303,0 30.28788,9.60606 36.15152,23.25757 l 34.83333,80.9394 a 30.606061,30.606061 0 0 0 27.80303,18.31818 H 474.54545 C 492.22727,407.51515 506,394.25757 506,377.87879 V 134.12121 c 0,-16.36364 -13.78788,-29.63636 -31.43939,-29.63636" />
  </g>
</svg>
