<svg version="1.1" xmlns="http://www.w3.org/2000/svg" xmlns:xlink="http://www.w3.org/1999/xlink" width="48" height="48"><defs><linearGradient x1="0" y1="0" x2="0" y2="0" gradientUnits="userSpaceOnUse" id="color-1"><stop offset="1" stop-color="#000000" stop-opacity="0"></stop><stop offset="1" stop-color="#000000" stop-opacity="0"></stop></linearGradient><filter id="dropshadow-base"><feColorMatrix type="matrix" values="0 0 0 0 0  0 0 0 0 0  0 0 0 0 0  0 0 0 .8 0"></feColorMatrix> <feOffset dx="0" dy="1"></feOffset> <feGaussianBlur stdDeviation="1"></feGaussianBlur> <feComposite in="SourceGraphic"></feComposite></filter><filter id="dropshadow-banner" x="-10%" y="-10%" width="120%" height="130%"><feColorMatrix type="matrix" values="0 0 0 0 0  0 0 0 0 0  0 0 0 0 0  0 0 0 .4 0"></feColorMatrix> <feOffset dx="0" dy="1"></feOffset> <feGaussianBlur stdDeviation="0.5"></feGaussianBlur> <feComposite in="SourceGraphic"></feComposite></filter></defs><g fill="none" fill-rule="nonzero" stroke="none" stroke-width="none" stroke-linecap="butt" stroke-linejoin="miter" stroke-miterlimit="10" stroke-dasharray="" stroke-dashoffset="0" font-family="none" font-weight="none" font-size="none" text-anchor="none" style="mix-blend-mode: normal"><path d="M2,24c0,-12.15026 9.84974,-22 22,-22c12.15026,0 22,9.84974 22,22c0,12.15026 -9.84974,22 -22,22c-12.15026,0 -22,-9.84974 -22,-22z" id="base 1 5" fill="#000000" stroke-width="1"></path><path d="" fill="url(#color-1)" stroke-width="1"></path><path d="M43.87965,22.62899h-2.05652c-0.04387,0 -0.08226,0.01714 -0.12408,0.02468c-0.62244,-3.52075 -3.63798,-6.19422 -7.36712,-6.19422c-3.66334,0 -6.71932,2.57818 -7.43225,6.00777c-0.91789,-0.79176 -1.87074,-1.20169 -2.8469,-1.20923c-0.00891,0 -0.01782,0 -0.02673,0c-0.99055,0 -1.9674,0.41405 -2.9182,1.22363c-0.68825,-3.43712 -3.67225,-6.02216 -7.34107,-6.02216c-3.96085,0 -7.20946,3.01622 -7.55564,6.86191c-0.01165,-0.00069 -0.02194,-0.00686 -0.03428,-0.00686h-2.05652c-0.37908,0 -0.68551,0.30711 -0.68551,0.68551c0,0.3784 0.30642,0.68551 0.68551,0.68551h2.05652c0.01234,0 0.02262,-0.00617 0.03428,-0.00686c0.34618,3.84568 3.59479,6.86191 7.55564,6.86191c4.09864,0 7.33422,-3.22941 7.47749,-7.26498c0.95354,-1.08858 1.88857,-1.64658 2.78178,-1.64658c0.00548,0 0.01165,0 0.01645,0c0.88362,0.00686 1.79602,0.5628 2.71323,1.64178c0.14464,4.03831 3.47688,7.26978 7.5762,7.26978c4.19255,0 7.4912,-3.37611 7.4912,-7.54056h2.05652c0.37908,0 0.68551,-0.30711 0.68551,-0.68551c0,-0.3784 -0.30642,-0.68551 -0.68551,-0.68551z" fill="none" stroke-width="0"></path><path d="M44.56515,23.31449c0,0.3784 -0.30642,0.68551 -0.68551,0.68551h-2.05652c0,4.16444 -3.29865,7.54056 -7.4912,7.54056c-4.09932,0 -7.43156,-3.23147 -7.5762,-7.26978c-0.91721,-1.07899 -1.82961,-1.63493 -2.71323,-1.64178c-0.0048,0 -0.01097,0 -0.01645,0c-0.89321,0 -1.82824,0.558 -2.78178,1.64658c-0.14327,4.03557 -3.37885,7.26498 -7.47749,7.26498c-3.96085,0 -7.20946,-3.01622 -7.55564,-6.86191c-0.01165,0.00069 -0.02194,0.00686 -0.03428,0.00686h-2.05652c-0.37908,0 -0.68551,-0.30711 -0.68551,-0.68551c0,-0.3784 0.30642,-0.68551 0.68551,-0.68551h2.05652c0.01234,0 0.02262,0.00617 0.03428,0.00686c0.34618,-3.84568 3.59479,-6.86191 7.55564,-6.86191c3.66882,0 6.65283,2.58504 7.34107,6.02216c0.9508,-0.80958 1.92764,-1.22363 2.9182,-1.22363c0.00891,0 0.01782,0 0.02673,0c0.97616,0.00754 1.92901,0.41747 2.8469,1.20923c0.71293,-3.42958 3.76891,-6.00777 7.43225,-6.00777c3.72915,0 6.74468,2.67347 7.36712,6.19422c0.04182,-0.00754 0.0802,-0.02468 0.12408,-0.02468h2.05652c0.37908,0 0.68551,0.30711 0.68551,0.68551z" fill="#ffffff" stroke-width="0"></path><path d="M2,24c0,-12.15026 9.84974,-22 22,-22c12.15026,0 22,9.84974 22,22c0,12.15026 -9.84974,22 -22,22c-12.15026,0 -22,-9.84974 -22,-22z" id="base 1 1 1" fill="none" stroke-width="1"></path><g id="Capa_1 1 1" fill="#000000" stroke-width="1" font-family="Roboto, sans-serif" font-weight="400" font-size="14" text-anchor="start"><g></g><g></g><g></g><g></g><g></g><g></g><g></g><g></g><g></g><g></g><g></g><g></g><g></g><g></g><g></g></g><rect x="2" y="2" width="44" height="22" fill="none" stroke-width="1"></rect><path d="M2,24v-22h44v22z" fill="none" stroke-width="1"></path><path d="M2,24v-22h44v22z" fill="none" stroke-width="1"></path><path d="M2,24v-22h44v22z" fill="none" stroke-width="1"></path><path d="M2,24v-22h44v22z" fill="none" stroke-width="1"></path></g></svg>