<?xml version="1.0" encoding="UTF-8" standalone="no"?>
<svg
   xmlns:dc="http://purl.org/dc/elements/1.1/"
   xmlns:cc="http://creativecommons.org/ns#"
   xmlns:rdf="http://www.w3.org/1999/02/22-rdf-syntax-ns#"
   xmlns:svg="http://www.w3.org/2000/svg"
   xmlns="http://www.w3.org/2000/svg"
   xmlns:sodipodi="http://sodipodi.sourceforge.net/DTD/sodipodi-0.dtd"
   xmlns:inkscape="http://www.inkscape.org/namespaces/inkscape"
   width="512"
   height="512"
   viewBox="0 0 512 512"
   version="1.1"
   id="svg8"
   sodipodi:docname="logo.svg"
   inkscape:version="0.92.2 (5c3e80d, 2017-08-06)"
   inkscape:export-filename="D:\Liyas\Projects\lvr\assets\images\logo.png"
   inkscape:export-xdpi="96"
   inkscape:export-ydpi="96">
  <metadata
     id="metadata14">
    <rdf:RDF>
      <cc:Work
         rdf:about="">
        <dc:format>image/svg+xml</dc:format>
        <dc:type
           rdf:resource="http://purl.org/dc/dcmitype/StillImage" />
        <dc:title />
      </cc:Work>
    </rdf:RDF>
  </metadata>
  <defs
     id="defs12" />
  <sodipodi:namedview
     pagecolor="#ffffff"
     bordercolor="#666666"
     borderopacity="1"
     objecttolerance="10"
     gridtolerance="10"
     guidetolerance="10"
     inkscape:pageopacity="0"
     inkscape:pageshadow="2"
     inkscape:window-width="1600"
     inkscape:window-height="1133"
     id="namedview10"
     showgrid="false"
     inkscape:zoom="1.3409091"
     inkscape:cx="151.9826"
     inkscape:cy="300.72957"
     inkscape:window-x="-9"
     inkscape:window-y="-9"
     inkscape:window-maximized="1"
     inkscape:current-layer="svg8" />
  <g
     id="g6"
     style="fill:#ff6e40;fill-rule:nonzero"
     transform="matrix(14.705873,0,0,14.705873,6.000175,94.235397)">
    <path
       d="m 29.626,22 h -6.08 c -1.61,0 -3.09,-0.896 -3.85,-2.33 l -1.713,-3.224 a 1.11,1.11 0 0 0 -0.995,-0.594 1.11,1.11 0 0 0 -0.995,0.594 L 14.28,19.67 A 4.362,4.362 0 0 1 10.437,22 H 4.374 A 4.346,4.346 0 0 1 1.279,20.708 4.435,4.435 0 0 1 0,17.582 V 4.412 C 0,3.24 0.461,2.118 1.281,1.29 A 4.346,4.346 0 0 1 4.374,0 H 29.626 A 4.346,4.346 0 0 1 32.719,1.29 4.435,4.435 0 0 1 34,4.412 v 13.17 A 4.435,4.435 0 0 1 32.72,20.708 4.346,4.346 0 0 1 29.627,22 Z m -12.62,-7.581 a 2.528,2.528 0 0 1 2.237,1.35 l 1.713,3.228 a 2.94,2.94 0 0 0 2.59,1.582 h 6.063 c 1.625,0 2.943,-1.331 2.943,-2.973 V 4.412 c 0,-1.642 -1.318,-2.973 -2.943,-2.973 H 4.374 C 2.748,1.439 1.43,2.77 1.43,4.412 v 13.17 c 0,1.642 1.318,2.973 2.944,2.973 h 6.063 a 2.94,2.94 0 0 0 2.613,-1.581 l 1.713,-3.223 A 2.528,2.528 0 0 1 17,14.4 l 0.006,0.018 z"
       id="path2"
       inkscape:connector-curvature="0" />
    <path
       d="M 9.325,15.4 C 6.93,15.4 4.99,13.43 4.99,11 c 0,-2.43 1.94,-4.4 4.334,-4.4 2.394,0 4.334,1.97 4.334,4.4 -0.003,2.429 -1.942,4.397 -4.334,4.4 z m 0,-7.389 c -1.613,0 -2.92,1.328 -2.92,2.965 0,1.638 1.307,2.965 2.92,2.965 1.613,0 2.92,-1.327 2.92,-2.965 0,-1.637 -1.307,-2.965 -2.92,-2.965 z M 24.669,15.4 c -2.393,-0.003 -4.33,-1.975 -4.328,-4.404 0.002,-2.43 1.943,-4.397 4.336,-4.396 2.393,0.001 4.332,1.97 4.332,4.4 -0.003,2.431 -1.945,4.4 -4.34,4.4 z m 0,-7.389 c -1.613,0 -2.92,1.328 -2.92,2.965 0,1.638 1.307,2.965 2.92,2.965 1.613,0 2.92,-1.327 2.92,-2.965 0,-1.637 -1.307,-2.965 -2.92,-2.965 z"
       id="path4"
       inkscape:connector-curvature="0" />
  </g>
</svg>
