<svg version="1.1" xmlns="http://www.w3.org/2000/svg" xmlns:xlink="http://www.w3.org/1999/xlink" width="48" height="48"><defs><linearGradient x1="0" y1="0" x2="0" y2="0" gradientUnits="userSpaceOnUse" id="color-1"><stop offset="1" stop-color="#000000" stop-opacity="0"></stop><stop offset="1" stop-color="#000000" stop-opacity="0"></stop></linearGradient><filter id="dropshadow-base"><feColorMatrix type="matrix" values="0 0 0 0 0  0 0 0 0 0  0 0 0 0 0  0 0 0 .8 0"></feColorMatrix> <feOffset dx="0" dy="1"></feOffset> <feGaussianBlur stdDeviation="1"></feGaussianBlur> <feComposite in="SourceGraphic"></feComposite></filter><filter id="dropshadow-banner" x="-10%" y="-10%" width="120%" height="130%"><feColorMatrix type="matrix" values="0 0 0 0 0  0 0 0 0 0  0 0 0 0 0  0 0 0 .4 0"></feColorMatrix> <feOffset dx="0" dy="1"></feOffset> <feGaussianBlur stdDeviation="0.5"></feGaussianBlur> <feComposite in="SourceGraphic"></feComposite></filter></defs><g fill="none" fill-rule="nonzero" stroke="none" stroke-width="none" stroke-linecap="butt" stroke-linejoin="miter" stroke-miterlimit="10" stroke-dasharray="" stroke-dashoffset="0" font-family="none" font-weight="none" font-size="none" text-anchor="none" style="mix-blend-mode: normal"><path d="M2,24c0,-12.15026 9.84974,-22 22,-22c12.15026,0 22,9.84974 22,22c0,12.15026 -9.84974,22 -22,22c-12.15026,0 -22,-9.84974 -22,-22z" id="base 1 5" fill-opacity="0" fill="#000000" stroke-width="1"></path><path d="" fill="url(#color-1)" stroke-width="1"></path><path d="M44.82623,22.56371h-2.15444c-0.04596,0 -0.08618,0.01795 -0.12998,0.02585c-0.65208,-3.6884 -3.8112,-6.48917 -7.71791,-6.48917c-3.83777,0 -7.03927,2.70095 -7.78614,6.29383c-0.9616,-0.82946 -1.95982,-1.25891 -2.98246,-1.26681c-0.00934,0 -0.01867,0 -0.02801,0c-1.03772,0 -2.06108,0.43376 -3.05715,1.28189c-0.72102,-3.60078 -3.84711,-6.30891 -7.69063,-6.30891c-4.14945,0 -7.55274,3.15984 -7.9154,7.18864c-0.01221,-0.00072 -0.02298,-0.00718 -0.03591,-0.00718h-2.15444c-0.39713,0 -0.71815,0.32173 -0.71815,0.71815c0,0.39642 0.32101,0.71815 0.71815,0.71815h2.15444c0.01293,0 0.0237,-0.00646 0.03591,-0.00718c0.36266,4.0288 3.76596,7.18864 7.9154,7.18864c4.29379,0 7.68344,-3.38319 7.83354,-7.61091c0.99894,-1.14042 1.97849,-1.72499 2.91424,-1.72499c0.00575,0 0.01221,0 0.01724,0c0.92569,0.00718 1.88154,0.5896 2.84242,1.71996c0.15153,4.2306 3.64244,7.61594 7.93695,7.61594c4.39218,0 7.8479,-3.53687 7.8479,-7.89961h2.15444c0.39713,0 0.71815,-0.32173 0.71815,-0.71815c0,-0.39642 -0.32101,-0.71815 -0.71815,-0.71815z" fill="none" stroke-width="0"></path><path d="M45.54438,23.28185c0,0.39642 -0.32101,0.71815 -0.71815,0.71815h-2.15444c0,4.36274 -3.45572,7.89961 -7.8479,7.89961c-4.29451,0 -7.78542,-3.38534 -7.93695,-7.61594c-0.96088,-1.13036 -1.91673,-1.71278 -2.84242,-1.71996c-0.00503,0 -0.01149,0 -0.01724,0c-0.93574,0 -1.9153,0.58457 -2.91424,1.72499c-0.15009,4.22773 -3.53974,7.61091 -7.83354,7.61091c-4.14945,0 -7.55274,-3.15984 -7.9154,-7.18864c-0.01221,0.00072 -0.02298,0.00718 -0.03591,0.00718h-2.15444c-0.39713,0 -0.71815,-0.32173 -0.71815,-0.71815c0,-0.39642 0.32101,-0.71815 0.71815,-0.71815h2.15444c0.01293,0 0.0237,0.00646 0.03591,0.00718c0.36266,-4.0288 3.76596,-7.18864 7.9154,-7.18864c3.84352,0 6.96961,2.70813 7.69063,6.30891c0.99607,-0.84813 2.01943,-1.28189 3.05715,-1.28189c0.00934,0 0.01867,0 0.02801,0c1.02264,0.0079 2.02086,0.43735 2.98246,1.26681c0.74687,-3.59288 3.94837,-6.29383 7.78614,-6.29383c3.90671,0 7.06584,2.80077 7.71791,6.48917c0.04381,-0.0079 0.08402,-0.02585 0.12998,-0.02585h2.15444c0.39713,0 0.71815,0.32173 0.71815,0.71815z" fill="#ffffff" stroke-width="0"></path><path d="M2,24c0,-12.15026 9.84974,-22 22,-22c12.15026,0 22,9.84974 22,22c0,12.15026 -9.84974,22 -22,22c-12.15026,0 -22,-9.84974 -22,-22z" id="base 1 1 1" fill="none" stroke-width="1"></path><g id="Capa_1 1 1" fill="#000000" stroke-width="1" font-family="Roboto, sans-serif" font-weight="400" font-size="14" text-anchor="start"><g></g><g></g><g></g><g></g><g></g><g></g><g></g><g></g><g></g><g></g><g></g><g></g><g></g><g></g><g></g></g><rect x="2" y="2" width="44" height="22" fill="none" stroke-width="1"></rect><path d="M2,24v-22h44v22z" fill="none" stroke-width="1"></path><path d="M2,24v-22h44v22z" fill="none" stroke-width="1"></path><path d="M2,24v-22h44v22z" fill="none" stroke-width="1"></path><path d="M2,24v-22h44v22z" fill="none" stroke-width="1"></path></g></svg>