<?xml version="1.0" encoding="iso-8859-1"?>
<!-- Generator: Adobe Illustrator 19.0.0, SVG Export Plug-In . SVG Version: 6.00 Build 0)  -->
<svg xmlns="http://www.w3.org/2000/svg" xmlns:xlink="http://www.w3.org/1999/xlink" version="1.1" id="Capa_1" x="0px" y="0px" viewBox="0 0 453.486 453.486" style="enable-background:new 0 0 453.486 453.486;" xml:space="preserve" width="512px" height="512px">
<g>
	<g>
		<path d="M304.588,77.845c-27.499-0.175-54.486,7.432-77.845,21.943c-23.359-14.511-50.346-22.118-77.845-21.943    C66.664,77.845,0,144.509,0,226.743s66.664,148.898,148.898,148.898c27.499,0.175,54.486-7.432,77.845-21.943    c23.359,14.511,50.346,22.118,77.845,21.943c82.234,0,148.898-66.664,148.898-148.898S386.822,77.845,304.588,77.845z     M190.76,323.462c5.249,6.181,10.993,11.925,17.174,17.174c-18.284,9.31-38.518,14.145-59.037,14.106    c-70.692,0-128-57.308-128-128s57.308-128,128-128c20.518-0.039,40.752,4.796,59.037,14.106    C145.033,166.266,137.344,260.56,190.76,323.462z M304.689,354.743c-0.034,0-0.067,0-0.101,0    c-20.518,0.039-40.752-4.796-59.037-14.106c62.902-53.417,70.591-147.711,17.174-210.613    c-5.249-6.181-10.993-11.925-17.174-17.174c18.284-9.31,38.518-14.145,59.037-14.106C375.28,98.715,432.61,156,432.638,226.692    S375.381,354.715,304.689,354.743z" fill="#FFFFFF"/>
	</g>
</g>
<g>
</g>
<g>
</g>
<g>
</g>
<g>
</g>
<g>
</g>
<g>
</g>
<g>
</g>
<g>
</g>
<g>
</g>
<g>
</g>
<g>
</g>
<g>
</g>
<g>
</g>
<g>
</g>
<g>
</g>
</svg>
