<?xml version="1.0" encoding="UTF-8" standalone="no"?>
<!-- Generator: Adobe Illustrator 16.0.0, SVG Export Plug-In . SVG Version: 6.00 Build 0)  -->

<svg
   xmlns:dc="http://purl.org/dc/elements/1.1/"
   xmlns:cc="http://creativecommons.org/ns#"
   xmlns:rdf="http://www.w3.org/1999/02/22-rdf-syntax-ns#"
   xmlns:svg="http://www.w3.org/2000/svg"
   xmlns="http://www.w3.org/2000/svg"
   xmlns:sodipodi="http://sodipodi.sourceforge.net/DTD/sodipodi-0.dtd"
   xmlns:inkscape="http://www.inkscape.org/namespaces/inkscape"
   version="1.1"
   id="Capa_1"
   x="0px"
   y="0px"
   width="511.99734"
   height="463.07764"
   viewBox="0 0 43.988772 39.785785"
   xml:space="preserve"
   sodipodi:docname="snap-logo-white.svg"
   inkscape:version="0.92.2 (5c3e80d, 2017-08-06)"><metadata
     id="metadata49"><rdf:RDF><cc:Work
         rdf:about=""><dc:format>image/svg+xml</dc:format><dc:type
           rdf:resource="http://purl.org/dc/dcmitype/StillImage" /><dc:title></dc:title></cc:Work></rdf:RDF></metadata><defs
     id="defs47" /><sodipodi:namedview
     pagecolor="#ffffff"
     bordercolor="#666666"
     borderopacity="1"
     objecttolerance="10"
     gridtolerance="10"
     guidetolerance="10"
     inkscape:pageopacity="0"
     inkscape:pageshadow="2"
     inkscape:window-width="1600"
     inkscape:window-height="1133"
     id="namedview45"
     showgrid="false"
     inkscape:pagecheckerboard="true"
     inkscape:zoom="0.4609375"
     inkscape:cx="256.0043"
     inkscape:cy="231.5434"
     inkscape:window-x="-9"
     inkscape:window-y="-9"
     inkscape:window-maximized="1"
     inkscape:current-layer="Capa_1" /><g
     id="g12"
     style="opacity:0.1"
     transform="translate(3.6943157e-4,-2.102)"><g
       id="g10"><path
         d="m 30.011,10.625 c -5.701,1.003 -10.568,7.002 -10.846,13.372 -0.277,6.375 4.135,10.734 9.836,9.73 5.7,-1.003 10.564,-6.996 10.846,-13.372 0.277,-6.367 -4.135,-10.734 -9.836,-9.73 z m -0.823,18.833 c -3.594,0.631 -6.369,-2.119 -6.193,-6.135 0.178,-4.01 3.234,-7.788 6.828,-8.419 3.588,-0.632 6.367,2.118 6.193,6.127 -0.175,4.014 -3.24,7.794 -6.828,8.427 z"
         id="path2"
         style="fill:#ffffff"
         inkscape:connector-curvature="0" /><path
         d="m 11.557,32.407 c -0.787,0.139 -1.451,0.961 -1.488,1.84 -0.039,0.879 0.563,1.479 1.348,1.342 0.787,-0.139 1.457,-0.963 1.494,-1.842 0.039,-0.879 -0.567,-1.48 -1.354,-1.34 z"
         id="path4"
         style="fill:#ffffff"
         inkscape:connector-curvature="0" /><path
         d="m 15.771,13.131 -4.387,0.772 c -0.771,0.136 -1.426,0.943 -1.463,1.803 -0.037,0.866 0.559,1.449 1.326,1.312 l 4.389,-0.771 c 0.768,-0.135 1.426,-0.938 1.463,-1.804 0.036,-0.859 -0.559,-1.448 -1.328,-1.312 z"
         id="path6"
         style="fill:#ffffff"
         inkscape:connector-curvature="0" /><path
         d="M 40.288,5.066 40.192,5.015 36.467,2.908 C 36.43,2.886 36.389,2.865 36.352,2.844 36.323,2.829 36.29,2.82 36.264,2.805 36.063,2.701 35.856,2.607 35.641,2.525 35.614,2.515 35.588,2.5 35.561,2.49 35.551,2.485 35.54,2.484 35.53,2.48 35.262,2.384 34.985,2.309 34.703,2.25 34.679,2.244 34.649,2.232 34.624,2.228 34.595,2.222 34.561,2.22 34.528,2.214 34.399,2.191 34.268,2.172 34.135,2.156 34.061,2.146 33.987,2.135 33.908,2.129 33.755,2.116 33.596,2.11 33.433,2.108 33.39,2.107 33.347,2.102 33.302,2.102 c -0.009,0 -0.02,0.001 -0.023,0.001 -0.146,10e-4 -0.297,0.012 -0.444,0.021 -0.06,0.004 -0.113,0.004 -0.175,0.01 -0.206,0.02 -0.418,0.046 -0.631,0.083 L 9.356,6.208 C 9.085,6.256 8.815,6.319 8.548,6.396 8.462,6.42 8.378,6.453 8.292,6.479 8.112,6.536 7.936,6.594 7.759,6.663 7.657,6.703 7.562,6.747 7.458,6.79 7.302,6.857 7.146,6.928 6.991,7.004 6.887,7.056 6.784,7.111 6.679,7.169 6.595,7.214 6.511,7.253 6.429,7.301 6.366,7.339 6.304,7.382 6.241,7.421 6.146,7.479 6.053,7.538 5.962,7.599 5.815,7.696 5.669,7.798 5.524,7.903 5.438,7.966 5.351,8.03 5.264,8.095 5.229,8.124 5.192,8.149 5.156,8.178 5.101,8.221 5.052,8.273 5.002,8.316 4.793,8.49 4.592,8.67 4.395,8.859 4.349,8.903 4.297,8.941 4.252,8.985 4.215,9.023 4.18,9.066 4.145,9.105 3.99,9.262 3.84,9.425 3.695,9.592 3.638,9.657 3.574,9.717 3.518,9.784 3.497,9.81 3.477,9.84 3.456,9.867 3.317,10.033 3.185,10.206 3.06,10.38 3,10.457 2.938,10.527 2.88,10.607 2.87,10.624 2.86,10.639 2.852,10.655 2.702,10.87 2.561,11.092 2.423,11.316 2.391,11.37 2.354,11.42 2.319,11.474 2.317,11.478 2.315,11.483 2.31,11.487 2.14,11.778 1.983,12.077 1.833,12.383 1.827,12.394 1.819,12.404 1.815,12.415 1.79,12.469 1.77,12.526 1.745,12.581 1.624,12.842 1.513,13.104 1.409,13.373 1.395,13.413 1.374,13.451 1.358,13.491 1.337,13.549 1.327,13.609 1.304,13.668 1.192,13.991 1.091,14.317 1.007,14.649 0.988,14.711 0.966,14.768 0.952,14.831 0.941,14.862 0.937,14.896 0.931,14.93 0.882,15.143 0.847,15.358 0.81,15.574 0.789,15.691 0.763,15.807 0.748,15.926 0.7,16.259 0.67,16.595 0.653,16.933 L 0.01,31.667 c -0.145,3.256 1.242,5.857 3.451,7.108 l 4.068,2.306 C 7.51,41.069 7.496,41.057 7.477,41.046 c 1.267,0.732 2.806,1.022 4.486,0.729 l 22.674,-3.99 c 4.57,-0.805 8.472,-5.615 8.693,-10.72 L 43.976,12.332 C 44.14,8.922 42.665,6.246 40.288,5.066 Z M 12.25,6.43 c 1.289,0 2.332,0.313 2.332,0.697 0,0.385 -1.043,0.698 -2.332,0.698 -1.285,0 -2.332,-0.312 -2.332,-0.698 0,-0.384 1.045,-0.697 2.332,-0.697 z M 40.794,27.504 C 40.64,31.037 37.94,34.362 34.776,34.92 L 12.102,38.91 C 8.934,39.469 6.487,37.047 6.641,33.514 L 7.285,18.781 c 0.153,-3.534 2.854,-6.866 6.021,-7.425 L 35.98,7.368 c 3.162,-0.558 5.609,1.871 5.455,5.403 z"
         id="path8"
         style="fill:#ffffff"
         inkscape:connector-curvature="0" /></g></g><g
     id="g14"
     transform="translate(3.6943157e-4,-2.102)" /><g
     id="g16"
     transform="translate(3.6943157e-4,-2.102)" /><g
     id="g18"
     transform="translate(3.6943157e-4,-2.102)" /><g
     id="g20"
     transform="translate(3.6943157e-4,-2.102)" /><g
     id="g22"
     transform="translate(3.6943157e-4,-2.102)" /><g
     id="g24"
     transform="translate(3.6943157e-4,-2.102)" /><g
     id="g26"
     transform="translate(3.6943157e-4,-2.102)" /><g
     id="g28"
     transform="translate(3.6943157e-4,-2.102)" /><g
     id="g30"
     transform="translate(3.6943157e-4,-2.102)" /><g
     id="g32"
     transform="translate(3.6943157e-4,-2.102)" /><g
     id="g34"
     transform="translate(3.6943157e-4,-2.102)" /><g
     id="g36"
     transform="translate(3.6943157e-4,-2.102)" /><g
     id="g38"
     transform="translate(3.6943157e-4,-2.102)" /><g
     id="g40"
     transform="translate(3.6943157e-4,-2.102)" /><g
     id="g42"
     transform="translate(3.6943157e-4,-2.102)" /></svg>