<?xml version="1.0" encoding="UTF-8" standalone="no"?>
<!-- Generator: Adobe Illustrator 16.0.0, SVG Export Plug-In . SVG Version: 6.00 Build 0)  -->

<svg
   xmlns:dc="http://purl.org/dc/elements/1.1/"
   xmlns:cc="http://creativecommons.org/ns#"
   xmlns:rdf="http://www.w3.org/1999/02/22-rdf-syntax-ns#"
   xmlns:svg="http://www.w3.org/2000/svg"
   xmlns="http://www.w3.org/2000/svg"
   xmlns:xlink="http://www.w3.org/1999/xlink"
   xmlns:sodipodi="http://sodipodi.sourceforge.net/DTD/sodipodi-0.dtd"
   xmlns:inkscape="http://www.inkscape.org/namespaces/inkscape"
   version="1.1"
   id="Capa_1"
   x="0px"
   y="0px"
   width="512"
   height="512"
   viewBox="0 0 512.00002 512.00002"
   xml:space="preserve"
   sodipodi:docname="snap-logo-black.svg"
   inkscape:version="0.92.2 (5c3e80d, 2017-08-06)"
   inkscape:export-filename="D:\Liyas\Projects\lvr\assets\images\snap-logo-black.png"
   inkscape:export-xdpi="96"
   inkscape:export-ydpi="96"><metadata
     id="metadata49"><rdf:RDF><cc:Work
         rdf:about=""><dc:format>image/svg+xml</dc:format><dc:type
           rdf:resource="http://purl.org/dc/dcmitype/StillImage" /><dc:title></dc:title></cc:Work></rdf:RDF></metadata><defs
     id="defs47"><linearGradient
       inkscape:collect="always"
       id="linearGradient872"><stop
         style="stop-color:#4fd6ef;stop-opacity:1"
         offset="0"
         id="stop868" /><stop
         style="stop-color:#43f5b1;stop-opacity:1"
         offset="1"
         id="stop870" /></linearGradient><linearGradient
       inkscape:collect="always"
       xlink:href="#linearGradient872"
       id="linearGradient874"
       x1="-0.00036943157"
       y1="21.994892"
       x2="43.9884"
       y2="21.994892"
       gradientUnits="userSpaceOnUse" /><linearGradient
       inkscape:collect="always"
       xlink:href="#linearGradient872"
       id="linearGradient882"
       x1="19.152637"
       y1="22.176102"
       x2="39.859364"
       y2="22.176102"
       gradientUnits="userSpaceOnUse" /><linearGradient
       inkscape:collect="always"
       xlink:href="#linearGradient872"
       id="linearGradient890"
       x1="9.9193659"
       y1="15.074709"
       x2="17.100552"
       y2="15.074709"
       gradientUnits="userSpaceOnUse" /><linearGradient
       inkscape:collect="always"
       xlink:href="#linearGradient872"
       id="linearGradient898"
       x1="10.067207"
       y1="33.99762"
       x2="12.912782"
       y2="33.99762"
       gradientUnits="userSpaceOnUse" /><filter
       style="color-interpolation-filters:sRGB;"
       inkscape:label="Drop Shadow"
       id="filter2526"><feFlood
         flood-opacity="0.301961"
         flood-color="rgb(0,0,0)"
         result="flood"
         id="feFlood2516" /><feComposite
         in="flood"
         in2="SourceGraphic"
         operator="in"
         result="composite1"
         id="feComposite2518" /><feGaussianBlur
         in="composite1"
         stdDeviation="0.4"
         result="blur"
         id="feGaussianBlur2520" /><feOffset
         dx="2.77556e-017"
         dy="0"
         result="offset"
         id="feOffset2522" /><feComposite
         in="SourceGraphic"
         in2="offset"
         operator="over"
         result="composite2"
         id="feComposite2524" /></filter></defs><sodipodi:namedview
     pagecolor="#ffffff"
     bordercolor="#666666"
     borderopacity="1"
     objecttolerance="10"
     gridtolerance="10"
     guidetolerance="10"
     inkscape:pageopacity="0"
     inkscape:pageshadow="2"
     inkscape:window-width="1600"
     inkscape:window-height="1133"
     id="namedview45"
     showgrid="false"
     inkscape:zoom="0.94840305"
     inkscape:cx="314.66122"
     inkscape:cy="295.52988"
     inkscape:window-x="-9"
     inkscape:window-y="-9"
     inkscape:window-maximized="1"
     inkscape:current-layer="g12"
     inkscape:pagecheckerboard="false" /><g
     id="g12"
     transform="matrix(11.639334,0,0,11.639334,0.00430201,-0.00590801)"><g
       id="g10"
       transform="matrix(0.92136691,0,0,0.92136691,1.7294572,1.7295252)"><path
         d="m 30.011,10.625 c -5.701,1.003 -10.568,7.002 -10.846,13.372 -0.277,6.375 4.135,10.734 9.836,9.73 5.7,-1.003 10.564,-6.996 10.846,-13.372 0.277,-6.367 -4.135,-10.734 -9.836,-9.73 z m -0.823,18.833 c -3.594,0.631 -6.369,-2.119 -6.193,-6.135 0.178,-4.01 3.234,-7.788 6.828,-8.419 3.588,-0.632 6.367,2.118 6.193,6.127 -0.175,4.014 -3.24,7.794 -6.828,8.427 z"
         id="path2"
         style="fill:url(#linearGradient882);fill-opacity:1"
         inkscape:connector-curvature="0" /><path
         d="m 11.557,32.407 c -0.787,0.139 -1.451,0.961 -1.488,1.84 -0.039,0.879 0.563,1.479 1.348,1.342 0.787,-0.139 1.457,-0.963 1.494,-1.842 0.039,-0.879 -0.567,-1.48 -1.354,-1.34 z"
         id="path4"
         style="fill:url(#linearGradient898);fill-opacity:1"
         inkscape:connector-curvature="0" /><path
         d="m 15.771,13.131 -4.387,0.772 c -0.771,0.136 -1.426,0.943 -1.463,1.803 -0.037,0.866 0.559,1.449 1.326,1.312 l 4.389,-0.771 c 0.768,-0.135 1.426,-0.938 1.463,-1.804 0.036,-0.859 -0.559,-1.448 -1.328,-1.312 z"
         id="path6"
         style="fill:url(#linearGradient890);fill-opacity:1"
         inkscape:connector-curvature="0" /><path
         d="M 40.288,5.066 40.192,5.015 36.467,2.908 C 36.43,2.886 36.389,2.865 36.352,2.844 36.323,2.829 36.29,2.82 36.264,2.805 36.063,2.701 35.856,2.607 35.641,2.525 35.614,2.515 35.588,2.5 35.561,2.49 35.551,2.485 35.54,2.484 35.53,2.48 35.262,2.384 34.985,2.309 34.703,2.25 34.679,2.244 34.649,2.232 34.624,2.228 34.595,2.222 34.561,2.22 34.528,2.214 34.399,2.191 34.268,2.172 34.135,2.156 34.061,2.146 33.987,2.135 33.908,2.129 33.755,2.116 33.596,2.11 33.433,2.108 33.39,2.107 33.347,2.102 33.302,2.102 c -0.009,0 -0.02,0.001 -0.023,0.001 -0.146,10e-4 -0.297,0.012 -0.444,0.021 -0.06,0.004 -0.113,0.004 -0.175,0.01 -0.206,0.02 -0.418,0.046 -0.631,0.083 L 9.356,6.208 C 9.085,6.256 8.815,6.319 8.548,6.396 8.462,6.42 8.378,6.453 8.292,6.479 8.112,6.536 7.936,6.594 7.759,6.663 7.657,6.703 7.562,6.747 7.458,6.79 7.302,6.857 7.146,6.928 6.991,7.004 6.887,7.056 6.784,7.111 6.679,7.169 6.595,7.214 6.511,7.253 6.429,7.301 6.366,7.339 6.304,7.382 6.241,7.421 6.146,7.479 6.053,7.538 5.962,7.599 5.815,7.696 5.669,7.798 5.524,7.903 5.438,7.966 5.351,8.03 5.264,8.095 5.229,8.124 5.192,8.149 5.156,8.178 5.101,8.221 5.052,8.273 5.002,8.316 4.793,8.49 4.592,8.67 4.395,8.859 4.349,8.903 4.297,8.941 4.252,8.985 4.215,9.023 4.18,9.066 4.145,9.105 3.99,9.262 3.84,9.425 3.695,9.592 3.638,9.657 3.574,9.717 3.518,9.784 3.497,9.81 3.477,9.84 3.456,9.867 3.317,10.033 3.185,10.206 3.06,10.38 3,10.457 2.938,10.527 2.88,10.607 2.87,10.624 2.86,10.639 2.852,10.655 2.702,10.87 2.561,11.092 2.423,11.316 2.391,11.37 2.354,11.42 2.319,11.474 2.317,11.478 2.315,11.483 2.31,11.487 2.14,11.778 1.983,12.077 1.833,12.383 1.827,12.394 1.819,12.404 1.815,12.415 1.79,12.469 1.77,12.526 1.745,12.581 1.624,12.842 1.513,13.104 1.409,13.373 1.395,13.413 1.374,13.451 1.358,13.491 1.337,13.549 1.327,13.609 1.304,13.668 1.192,13.991 1.091,14.317 1.007,14.649 0.988,14.711 0.966,14.768 0.952,14.831 0.941,14.862 0.937,14.896 0.931,14.93 0.882,15.143 0.847,15.358 0.81,15.574 0.789,15.691 0.763,15.807 0.748,15.926 0.7,16.259 0.67,16.595 0.653,16.933 L 0.01,31.667 c -0.145,3.256 1.242,5.857 3.451,7.108 l 4.068,2.306 C 7.51,41.069 7.496,41.057 7.477,41.046 c 1.267,0.732 2.806,1.022 4.486,0.729 l 22.674,-3.99 c 4.57,-0.805 8.472,-5.615 8.693,-10.72 L 43.976,12.332 C 44.14,8.922 42.665,6.246 40.288,5.066 Z M 12.25,6.43 c 1.289,0 2.332,0.313 2.332,0.697 0,0.385 -1.043,0.698 -2.332,0.698 -1.285,0 -2.332,-0.312 -2.332,-0.698 0,-0.384 1.045,-0.697 2.332,-0.697 z M 40.794,27.504 C 40.64,31.037 37.94,34.362 34.776,34.92 L 12.102,38.91 C 8.934,39.469 6.487,37.047 6.641,33.514 L 7.285,18.781 c 0.153,-3.534 2.854,-6.866 6.021,-7.425 L 35.98,7.368 c 3.162,-0.558 5.609,1.871 5.455,5.403 z"
         id="path8"
         style="fill:url(#linearGradient874);fill-opacity:1;filter:url(#filter2526)"
         inkscape:connector-curvature="0" /><path
         style="opacity:1;fill:#ffffff;fill-opacity:1;stroke:none;stroke-width:1.05440402;stroke-opacity:1"
         d="m 118.39299,452.30595 c -19.22633,-4.90221 -33.381631,-19.72564 -38.909992,-40.74653 -2.459601,-9.35232 -2.304319,-17.959 2.113797,-117.15905 3.499676,-78.5783 3.902771,-84.59207 6.30478,-94.06107 6.334744,-24.97231 23.434805,-47.8112 44.886265,-59.95023 7.55196,-4.27352 15.64404,-6.87697 28.56285,-9.18945 6.61744,-1.18453 56.87024,-10.01462 111.67289,-19.62242 54.80265,-9.60781 110.07978,-19.323896 122.83807,-21.591313 30.97781,-5.505409 34.28379,-5.798058 43.5099,-3.851535 10.49302,2.213814 19.13508,7.077938 26.37733,14.846298 11.22798,12.04362 16.0467,25.29381 16.0467,44.12412 0,18.77263 -7.38966,180.3308 -8.54638,186.84715 -5.58356,31.45485 -29.94934,61.66847 -57.43813,71.22336 -3.43319,1.19336 -33.05039,6.91044 -65.81599,12.70463 C 167.7935,448.1 139.9596,452.87931 132.26064,453.26667 c -4.96195,0.24965 -10.67208,-0.14593 -13.86765,-0.96072 z m 22.15651,-41.47009 c 7.90576,-5.55639 11.79687,-16.83703 8.64998,-25.07704 -3.04541,-7.97431 -10.05463,-10.79805 -18.27632,-7.3628 -5.44167,2.27367 -8.55014,5.41025 -11.44461,11.54812 -8.08819,17.15135 6.21499,31.33287 21.07095,20.89172 z M 342.44484,391.6118 c 25.1989,-5.5184 48.66354,-19.0363 69.75679,-40.1867 32.91818,-33.00735 51.65141,-76.96713 51.65862,-121.22317 0.009,-53.07908 -28.03439,-93.78137 -72.74342,-105.58143 -13.66102,-3.60556 -33.46514,-3.38501 -48.85542,0.54408 -25.1604,6.42336 -45.2691,17.9374 -65.41214,37.45433 -60.14529,58.2758 -72.02057,152.30203 -25.54149,202.23278 23.41019,25.14871 55.48697,34.56726 91.13706,26.76011 z M 156.46718,193.76492 c 31.12598,-5.44651 34.42273,-6.69748 39.21916,-14.88199 5.80736,-9.90948 3.92727,-20.89377 -4.27655,-24.98555 l -3.94788,-1.96905 -28.12783,4.97665 c -15.47032,2.73716 -29.68636,5.70166 -31.59122,6.58777 -7.81832,3.63696 -13.79127,15.61866 -11.88644,23.84412 1.37228,5.92583 6.59603,10.94784 11.61465,11.1661 0.84526,0.0368 13.89351,-2.09537 28.99611,-4.73805 z"
         id="path1322"
         inkscape:connector-curvature="0"
         transform="matrix(0.08591557,0,0,0.08591557,-3.6960964e-4,5.0759004e-4)" /><path
         style="opacity:1;fill:#ffffff;fill-opacity:1;stroke:none;stroke-width:1.05440402;stroke-opacity:1"
         d="m 318.29733,343.0177 c -17.96971,-2.83002 -34.19744,-15.06076 -42.51894,-32.04627 -6.02991,-12.30801 -7.45661,-19.20567 -7.43733,-35.95733 0.0147,-12.81564 0.39948,-16.15167 2.91844,-25.3057 5.28438,-19.20365 14.75308,-35.63997 28.62606,-49.69073 47.07034,-47.67354 112.25276,-30.16099 118.53793,31.84756 3.00117,29.6091 -9.27902,62.35799 -31.70038,84.53875 -9.71209,9.60788 -16.02742,14.17863 -26.7112,19.33236 -13.93319,6.7212 -28.79704,9.31572 -41.71458,7.28136 z"
         id="path1324"
         inkscape:connector-curvature="0"
         transform="matrix(0.08591557,0,0,0.08591557,-3.6960964e-4,5.0759004e-4)" /><path
         style="opacity:1;fill:#ffffff;fill-opacity:1;stroke:none;stroke-width:0.09058972;stroke-opacity:1"
         d="m 11.138935,6.5490747 c -1.06991,0.1773056 -1.498008,0.6311123 -0.874479,0.9269961 0.986073,0.4679226 3.328756,0.426596 4.089938,-0.072149 C 15.236231,6.82612 13.020978,6.2371833 11.138935,6.5490747 Z"
         id="path1326"
         inkscape:connector-curvature="0" /></g></g><g
     id="g14"
     transform="translate(0,468.011)" /><g
     id="g16"
     transform="translate(0,468.011)" /><g
     id="g18"
     transform="translate(0,468.011)" /><g
     id="g20"
     transform="translate(0,468.011)" /><g
     id="g22"
     transform="translate(0,468.011)" /><g
     id="g24"
     transform="translate(0,468.011)" /><g
     id="g26"
     transform="translate(0,468.011)" /><g
     id="g28"
     transform="translate(0,468.011)" /><g
     id="g30"
     transform="translate(0,468.011)" /><g
     id="g32"
     transform="translate(0,468.011)" /><g
     id="g34"
     transform="translate(0,468.011)" /><g
     id="g36"
     transform="translate(0,468.011)" /><g
     id="g38"
     transform="translate(0,468.011)" /><g
     id="g40"
     transform="translate(0,468.011)" /><g
     id="g42"
     transform="translate(0,468.011)" /></svg>