<?xml version="1.0" encoding="UTF-8" standalone="no"?>
<!-- Generator: Adobe Illustrator 16.0.0, SVG Export Plug-In . SVG Version: 6.00 Build 0)  -->

<svg
   xmlns:dc="http://purl.org/dc/elements/1.1/"
   xmlns:cc="http://creativecommons.org/ns#"
   xmlns:rdf="http://www.w3.org/1999/02/22-rdf-syntax-ns#"
   xmlns:svg="http://www.w3.org/2000/svg"
   xmlns="http://www.w3.org/2000/svg"
   xmlns:sodipodi="http://sodipodi.sourceforge.net/DTD/sodipodi-0.dtd"
   xmlns:inkscape="http://www.inkscape.org/namespaces/inkscape"
   version="1.1"
   id="Capa_1"
   x="0px"
   y="0px"
   width="512px"
   height="512px"
   viewBox="0 0 43.989 43.989"
   style="enable-background:new 0 0 43.989 43.989;"
   xml:space="preserve"
   sodipodi:docname="snap-logo-white.svg"
   inkscape:version="0.92.2 (5c3e80d, 2017-08-06)"><metadata
     id="metadata49"><rdf:RDF><cc:Work
         rdf:about=""><dc:format>image/svg+xml</dc:format><dc:type
           rdf:resource="http://purl.org/dc/dcmitype/StillImage" /></cc:Work></rdf:RDF></metadata><defs
     id="defs47" /><sodipodi:namedview
     pagecolor="#ffffff"
     bordercolor="#666666"
     borderopacity="1"
     objecttolerance="10"
     gridtolerance="10"
     guidetolerance="10"
     inkscape:pageopacity="0"
     inkscape:pageshadow="2"
     inkscape:window-width="1600"
     inkscape:window-height="1133"
     id="namedview45"
     showgrid="false"
     inkscape:zoom="0.4609375"
     inkscape:cx="256"
     inkscape:cy="256"
     inkscape:window-x="-9"
     inkscape:window-y="-9"
     inkscape:window-maximized="1"
     inkscape:current-layer="Capa_1" /><g
     id="g12"
     style="opacity:0.3"><g
       id="g10"
       style=""><path
         d="M30.011,10.625c-5.701,1.003-10.568,7.002-10.846,13.372c-0.277,6.375,4.135,10.734,9.836,9.73    c5.7-1.003,10.564-6.996,10.846-13.372C40.124,13.988,35.712,9.621,30.011,10.625z M29.188,29.458    c-3.594,0.631-6.369-2.119-6.193-6.135c0.178-4.01,3.234-7.788,6.828-8.419c3.588-0.632,6.367,2.118,6.193,6.127    C35.841,25.045,32.776,28.825,29.188,29.458z"
         fill="#FFFFFF"
         id="path2"
         style="" /><path
         d="M11.557,32.407c-0.787,0.139-1.451,0.961-1.488,1.84c-0.039,0.879,0.563,1.479,1.348,1.342    c0.787-0.139,1.457-0.963,1.494-1.842C12.95,32.868,12.344,32.267,11.557,32.407z"
         fill="#FFFFFF"
         id="path4"
         style="" /><path
         d="M15.771,13.131l-4.387,0.772c-0.771,0.136-1.426,0.943-1.463,1.803c-0.037,0.866,0.559,1.449,1.326,1.312l4.389-0.771    c0.768-0.135,1.426-0.938,1.463-1.804C17.135,13.584,16.54,12.995,15.771,13.131z"
         fill="#FFFFFF"
         id="path6"
         style="" /><path
         d="M40.288,5.066l-0.096-0.051l-3.725-2.107c-0.037-0.022-0.078-0.043-0.115-0.064c-0.029-0.015-0.062-0.024-0.088-0.039    c-0.201-0.104-0.408-0.198-0.623-0.28c-0.027-0.01-0.053-0.025-0.08-0.035c-0.01-0.005-0.021-0.006-0.031-0.01    c-0.268-0.096-0.545-0.171-0.827-0.23c-0.024-0.006-0.054-0.018-0.079-0.022c-0.029-0.006-0.063-0.008-0.096-0.014    c-0.129-0.023-0.26-0.042-0.393-0.058c-0.074-0.01-0.148-0.021-0.227-0.027c-0.153-0.013-0.312-0.019-0.475-0.021    c-0.043-0.001-0.086-0.006-0.131-0.006c-0.009,0-0.02,0.001-0.023,0.001c-0.146,0.001-0.297,0.012-0.444,0.021    c-0.06,0.004-0.113,0.004-0.175,0.01c-0.206,0.02-0.418,0.046-0.631,0.083L9.356,6.208C9.085,6.256,8.815,6.319,8.548,6.396    C8.462,6.42,8.378,6.453,8.292,6.479c-0.18,0.057-0.356,0.115-0.533,0.184C7.657,6.703,7.562,6.747,7.458,6.79    C7.302,6.857,7.146,6.928,6.991,7.004C6.887,7.056,6.784,7.111,6.679,7.169c-0.084,0.045-0.168,0.084-0.25,0.132    c-0.063,0.038-0.125,0.081-0.188,0.12C6.146,7.479,6.053,7.538,5.962,7.599C5.815,7.696,5.669,7.798,5.524,7.903    C5.438,7.966,5.351,8.03,5.264,8.095C5.229,8.124,5.192,8.149,5.156,8.178C5.101,8.221,5.052,8.273,5.002,8.316    C4.793,8.49,4.592,8.67,4.395,8.859C4.349,8.903,4.297,8.941,4.252,8.985C4.215,9.023,4.18,9.066,4.145,9.105    C3.99,9.262,3.84,9.425,3.695,9.592C3.638,9.657,3.574,9.717,3.518,9.784C3.497,9.81,3.477,9.84,3.456,9.867    c-0.139,0.166-0.271,0.339-0.396,0.513C3,10.457,2.938,10.527,2.88,10.607c-0.01,0.017-0.02,0.032-0.028,0.048    c-0.15,0.215-0.291,0.437-0.429,0.661c-0.032,0.054-0.069,0.104-0.104,0.158c-0.002,0.004-0.004,0.009-0.009,0.013    c-0.17,0.291-0.327,0.59-0.477,0.896c-0.006,0.011-0.014,0.021-0.018,0.032c-0.025,0.054-0.045,0.111-0.07,0.166    c-0.121,0.261-0.232,0.523-0.336,0.792c-0.014,0.04-0.035,0.078-0.051,0.118c-0.021,0.058-0.031,0.118-0.054,0.177    c-0.112,0.323-0.213,0.649-0.297,0.981c-0.019,0.062-0.041,0.119-0.055,0.182c-0.011,0.031-0.015,0.065-0.021,0.099    c-0.049,0.213-0.084,0.428-0.121,0.644c-0.021,0.117-0.047,0.233-0.062,0.352C0.7,16.259,0.67,16.595,0.653,16.933L0.01,31.667    c-0.145,3.256,1.242,5.857,3.451,7.108l4.068,2.306c-0.019-0.012-0.033-0.024-0.052-0.035c1.267,0.732,2.806,1.022,4.486,0.729    l22.674-3.99c4.57-0.805,8.472-5.615,8.693-10.72l0.646-14.733C44.14,8.922,42.665,6.246,40.288,5.066z M12.25,6.43    c1.289,0,2.332,0.313,2.332,0.697c0,0.385-1.043,0.698-2.332,0.698c-1.285,0-2.332-0.312-2.332-0.698    C9.918,6.743,10.963,6.43,12.25,6.43z M40.794,27.504c-0.154,3.533-2.854,6.858-6.018,7.416l-22.674,3.99    c-3.168,0.559-5.615-1.863-5.461-5.396l0.644-14.733c0.153-3.534,2.854-6.866,6.021-7.425L35.98,7.368    c3.162-0.558,5.609,1.871,5.455,5.403L40.794,27.504z"
         fill="#FFFFFF"
         id="path8"
         style="" /></g></g><g
     id="g14" /><g
     id="g16" /><g
     id="g18" /><g
     id="g20" /><g
     id="g22" /><g
     id="g24" /><g
     id="g26" /><g
     id="g28" /><g
     id="g30" /><g
     id="g32" /><g
     id="g34" /><g
     id="g36" /><g
     id="g38" /><g
     id="g40" /><g
     id="g42" /></svg>