<?xml version="1.0" encoding="iso-8859-1"?>
<!-- Generator: Adobe Illustrator 18.0.0, SVG Export Plug-In . SVG Version: 6.00 Build 0)  -->
<!DOCTYPE svg PUBLIC "-//W3C//DTD SVG 1.1//EN" "http://www.w3.org/Graphics/SVG/1.1/DTD/svg11.dtd">
<svg xmlns="http://www.w3.org/2000/svg" xmlns:xlink="http://www.w3.org/1999/xlink" version="1.1" id="Capa_1" x="0px" y="0px" viewBox="0 0 495.57 495.57" style="enable-background:new 0 0 495.57 495.57;" xml:space="preserve" width="512px" height="512px">
<g>
	<path d="M350.342,129.598l-26.633-10.922c-0.931-0.377-1.993-0.146-2.683,0.584c-0.666,0.739-0.836,1.811-0.392,2.713   l45.304,91.653c0.463,0.92,1.39,1.503,2.419,1.503c1.028,0,1.961-0.583,2.422-1.503l45.304-91.653   c0.447-0.902,0.275-1.975-0.396-2.713c-0.687-0.73-1.751-0.961-2.675-0.584l-27.483,11.275C381.255,57.599,321.198,0,247.784,0   c-76.184,0-138.157,61.969-138.157,138.142c0,9.712,7.864,17.586,17.585,17.586c9.72,0,17.586-7.875,17.586-17.586   c0-56.775,46.193-102.971,102.986-102.971C301.691,35.17,345.982,76.816,350.342,129.598z" fill="#FFFFFF"/>
	<path d="M368.358,269.157c-62.428,0-113.204,50.781-113.204,113.207c0,62.425,50.776,113.206,113.204,113.206   c62.425,0,113.209-50.781,113.209-113.206C481.567,319.938,430.782,269.157,368.358,269.157z M368.358,460.399   c-43.036,0-78.035-35.008-78.035-78.035c0-43.027,34.999-78.037,78.035-78.037c43.039,0,78.039,35.009,78.039,78.037   C446.397,425.391,411.397,460.399,368.358,460.399z" fill="#FFFFFF"/>
	<path d="M127.212,269.157c-62.426,0-113.209,50.781-113.209,113.207c0,62.425,50.783,113.206,113.209,113.206   c62.426,0,113.204-50.781,113.204-113.206C240.416,319.938,189.638,269.157,127.212,269.157z" fill="#FFFFFF"/>
</g>
<g>
</g>
<g>
</g>
<g>
</g>
<g>
</g>
<g>
</g>
<g>
</g>
<g>
</g>
<g>
</g>
<g>
</g>
<g>
</g>
<g>
</g>
<g>
</g>
<g>
</g>
<g>
</g>
<g>
</g>
</svg>
