{
  "accessors": [
    {
      "bufferView": 1,
      "componentType": 5126,
      "count": 71,
      "max": [
        28.221527099609375,
        29.253173828125,
        9.7137603759765625
      ],
      "min": [
        12.836135864257812,
        29.253173828125,
        4.674774169921875
      ],
      "type": "VEC3"
    },
    {
      "bufferView": 1,
      "byteOffset": 852,
      "componentType": 5126,
      "count": 71,
      "max": [
        0,
        1,
        0
      ],
      "min": [
        -3.5251529207627405e-15,
        1,
        0
      ],
      "type": "VEC3"
    },
    {
      "bufferView": 2,
      "componentType": 5126,
      "count": 71,
      "max": [
        1,
        3.5251531325209773e-15,
        3.7924797652522102e-05,
        1
      ],
      "min": [
        1,
        0,
        -3.0481720386887901e-05,
        1
      ],
      "type": "VEC4"
    },
    {
      "bufferView": 0,
      "componentType": 5125,
      "count": 228,
      "max": [
        70
      ],
      "min": [
        0
      ],
      "type": "SCALAR"
    },
    {
      "bufferView": 1,
      "byteOffset": 1704,
      "componentType": 5126,
      "count": 27830,
      "max": [
        40.961029052734375,
        33.47552490234375,
        38.300643920898438
      ],
      "min": [
        0,
        0,
        0
      ],
      "type": "VEC3"
    },
    {
      "bufferView": 1,
      "byteOffset": 335664,
      "componentType": 5126,
      "count": 27830,
      "max": [
        0.99999511241912842,
        1,
        1
      ],
      "min": [
        -0.99993884563446045,
        -1,
        -1
      ],
      "type": "VEC3"
    },
    {
      "bufferView": 2,
      "byteOffset": 1136,
      "componentType": 5126,
      "count": 27830,
      "max": [
        1,
        1,
        0.999947190284729,
        1
      ],
      "min": [
        -1,
        -1,
        -0.99999767541885376,
        -1
      ],
      "type": "VEC4"
    },
    {
      "bufferView": 0,
      "byteOffset": 912,
      "componentType": 5125,
      "count": 140796,
      "max": [
        27829
      ],
      "min": [
        0
      ],
      "type": "SCALAR"
    },
    {
      "bufferView": 1,
      "byteOffset": 669624,
      "componentType": 5126,
      "count": 9114,
      "max": [
        28.638069152832031,
        26.6083984375,
        22.627655029296875
      ],
      "min": [
        10.31304931640625,
        7.03619384765625,
        9.76898193359375
      ],
      "type": "VEC3"
    },
    {
      "bufferView": 1,
      "byteOffset": 778992,
      "componentType": 5126,
      "count": 9114,
      "max": [
        0.99999505281448364,
        1,
        0.99999946355819702
      ],
      "min": [
        -0.99967753887176514,
        -1,
        -1
      ],
      "type": "VEC3"
    },
    {
      "bufferView": 2,
      "byteOffset": 446416,
      "componentType": 5126,
      "count": 9114,
      "max": [
        1,
        1,
        0.45099130272865295,
        1
      ],
      "min": [
        -1,
        -1,
        -0.58630025386810303,
        1
      ],
      "type": "VEC4"
    },
    {
      "bufferView": 0,
      "byteOffset": 564096,
      "componentType": 5125,
      "count": 46644,
      "max": [
        9113
      ],
      "min": [
        0
      ],
      "type": "SCALAR"
    },
    {
      "bufferView": 1,
      "byteOffset": 888360,
      "componentType": 5126,
      "count": 2290,
      "max": [
        28.998321533203125,
        34.98638916015625,
        19.344741821289062
      ],
      "min": [
        11.594070434570312,
        33.709228515625,
        13.522262573242188
      ],
      "type": "VEC3"
    },
    {
      "bufferView": 1,
      "byteOffset": 915840,
      "componentType": 5126,
      "count": 2290,
      "max": [
        1,
        1,
        1
      ],
      "min": [
        -1,
        -1,
        -1
      ],
      "type": "VEC3"
    },
    {
      "bufferView": 2,
      "byteOffset": 592240,
      "componentType": 5126,
      "count": 2290,
      "max": [
        1,
        1,
        0.082976445555686951,
        -1
      ],
      "min": [
        -1,
        -1,
        -0.082958884537220001,
        -1
      ],
      "type": "VEC4"
    },
    {
      "bufferView": 0,
      "byteOffset": 750672,
      "componentType": 5125,
      "count": 12528,
      "max": [
        2289
      ],
      "min": [
        0
      ],
      "type": "SCALAR"
    },
    {
      "bufferView": 1,
      "byteOffset": 943320,
      "componentType": 5126,
      "count": 2143,
      "max": [
        31.264678955078125,
        34.95111083984375,
        22.134109497070312
      ],
      "min": [
        22.001197814941406,
        25.074462890625,
        10.732894897460938
      ],
      "type": "VEC3"
    },
    {
      "bufferView": 1,
      "byteOffset": 969036,
      "componentType": 5126,
      "count": 2143,
      "max": [
        1,
        1,
        1
      ],
      "min": [
        -1,
        -1,
        -1
      ],
      "type": "VEC3"
    },
    {
      "bufferView": 2,
      "byteOffset": 628880,
      "componentType": 5126,
      "count": 2143,
      "max": [
        1,
        1,
        0.021096585318446159,
        -1
      ],
      "min": [
        -1,
        -1,
        -0.021094830706715584,
        -1
      ],
      "type": "VEC4"
    },
    {
      "bufferView": 0,
      "byteOffset": 800784,
      "componentType": 5125,
      "count": 11904,
      "max": [
        2142
      ],
      "min": [
        0
      ],
      "type": "SCALAR"
    },
    {
      "bufferView": 1,
      "byteOffset": 994752,
      "componentType": 5126,
      "count": 2143,
      "max": [
        18.591201782226562,
        34.95111083984375,
        22.134109497070312
      ],
      "min": [
        9.3277130126953125,
        25.074462890625,
        10.732894897460938
      ],
      "type": "VEC3"
    },
    {
      "bufferView": 1,
      "byteOffset": 1020468,
      "componentType": 5126,
      "count": 2143,
      "max": [
        1,
        1,
        1
      ],
      "min": [
        -1,
        -1,
        -1
      ],
      "type": "VEC3"
    },
    {
      "bufferView": 2,
      "byteOffset": 663168,
      "componentType": 5126,
      "count": 2143,
      "max": [
        1,
        1,
        0.021087087690830231,
        -1
      ],
      "min": [
        -1,
        -1,
        -0.021086104214191437,
        -1
      ],
      "type": "VEC4"
    },
    {
      "bufferView": 0,
      "byteOffset": 848400,
      "componentType": 5125,
      "count": 11904,
      "max": [
        2142
      ],
      "min": [
        0
      ],
      "type": "SCALAR"
    }
  ],
  "asset": {
    "extras": {
      "author": "Dimensión N (https://sketchfab.com/dimensionn)",
      "license": "CC-BY-4.0 (http://creativecommons.org/licenses/by/4.0/)",
      "source": "https://sketchfab.com/models/aba9c319497c4c5f8c62cd109b3e9242",
      "title": "3d Poop Emoji"
    },
    "generator": "Sketchfab-3.18.6",
    "version": "2.0"
  },
  "bufferViews": [
    {
      "buffer": 0,
      "byteLength": 896016,
      "byteOffset": 0,
      "name": "floatBufferViews",
      "target": 34963
    },
    {
      "buffer": 0,
      "byteLength": 1046184,
      "byteOffset": 896016,
      "byteStride": 12,
      "name": "floatBufferViews",
      "target": 34962
    },
    {
      "buffer": 0,
      "byteLength": 697456,
      "byteOffset": 1942200,
      "byteStride": 16,
      "name": "floatBufferViews",
      "target": 34962
    }
  ],
  "buffers": [
    {
      "byteLength": 2639656,
      "uri": "scene.bin"
    }
  ],
  "materials": [
    {
      "doubleSided": true,
      "emissiveFactor": [
        0,
        0,
        0
      ],
      "name": "Blanco_Ojos",
      "pbrMetallicRoughness": {
        "baseColorFactor": [
          1,
          1,
          1,
          1
        ],
        "metallicFactor": 0,
        "roughnessFactor": 0.59999999999999998
      }
    },
    {
      "doubleSided": true,
      "emissiveFactor": [
        0,
        0,
        0
      ],
      "name": "Cafe",
      "pbrMetallicRoughness": {
        "baseColorFactor": [
          0.29038714119999998,
          0.1368630636,
          0.081206335199999993,
          1
        ],
        "metallicFactor": 0,
        "roughnessFactor": 0.59999999999999998
      }
    },
    {
      "doubleSided": true,
      "emissiveFactor": [
        0,
        0,
        0
      ],
      "name": "Custom",
      "pbrMetallicRoughness": {
        "baseColorFactor": [
          0,
          0,
          0,
          1
        ],
        "metallicFactor": 0,
        "roughnessFactor": 0.59999999999999998
      }
    },
    {
      "doubleSided": true,
      "emissiveFactor": [
        0,
        0,
        0
      ],
      "name": "Default",
      "pbrMetallicRoughness": {
        "baseColorFactor": [
          1,
          1,
          1,
          1
        ],
        "metallicFactor": 0,
        "roughnessFactor": 0.59999999999999998
      }
    }
  ],
  "meshes": [
    {
      "primitives": [
        {
          "attributes": {
            "NORMAL": 1,
            "POSITION": 0,
            "TANGENT": 2
          },
          "indices": 3,
          "material": 0,
          "mode": 4
        }
      ]
    },
    {
      "primitives": [
        {
          "attributes": {
            "NORMAL": 5,
            "POSITION": 4,
            "TANGENT": 6
          },
          "indices": 7,
          "material": 1,
          "mode": 4
        }
      ]
    },
    {
      "primitives": [
        {
          "attributes": {
            "NORMAL": 9,
            "POSITION": 8,
            "TANGENT": 10
          },
          "indices": 11,
          "material": 1,
          "mode": 4
        }
      ]
    },
    {
      "primitives": [
        {
          "attributes": {
            "NORMAL": 13,
            "POSITION": 12,
            "TANGENT": 14
          },
          "indices": 15,
          "material": 2,
          "mode": 4
        }
      ]
    },
    {
      "primitives": [
        {
          "attributes": {
            "NORMAL": 17,
            "POSITION": 16,
            "TANGENT": 18
          },
          "indices": 19,
          "material": 3,
          "mode": 4
        }
      ]
    },
    {
      "primitives": [
        {
          "attributes": {
            "NORMAL": 21,
            "POSITION": 20,
            "TANGENT": 22
          },
          "indices": 23,
          "material": 3,
          "mode": 4
        }
      ]
    }
  ],
  "nodes": [
    {
      "children": [
        1
      ],
      "name": "RootNode (gltf orientation matrix)",
      "rotation": [
        -0.70710678118654746,
        -0,
        -0,
        0.70710678118654757
      ]
    },
    {
      "children": [
        2
      ],
      "name": "RootNode (model correction matrix)"
    },
    {
      "children": [
        3
      ],
      "matrix": [
        1,
        0,
        0,
        0,
        0,
        1,
        0,
        0,
        0,
        0,
        1,
        0,
        -149.41474914550781,
        912.18023681640625,
        171.25325012207031,
        1
      ],
      "name": "RhinoExporter.obj.cleaner.gles"
    },
    {
      "children": [
        4,
        5,
        6,
        7,
        8,
        9
      ],
      "name": ""
    },
    {
      "mesh": 0,
      "name": ""
    },
    {
      "mesh": 1,
      "name": ""
    },
    {
      "mesh": 2,
      "name": ""
    },
    {
      "mesh": 3,
      "name": ""
    },
    {
      "mesh": 4,
      "name": ""
    },
    {
      "mesh": 5,
      "name": ""
    }
  ],
  "scene": 0,
  "scenes": [
    {
      "name": "OSG_Scene",
      "nodes": [
        0
      ]
    }
  ]
}

