<?xml version="1.0" encoding="iso-8859-1"?>
<!-- Generator: Adobe Illustrator 16.0.0, SVG Export Plug-In . SVG Version: 6.00 Build 0)  -->
<!DOCTYPE svg PUBLIC "-//W3C//DTD SVG 1.1//EN" "http://www.w3.org/Graphics/SVG/1.1/DTD/svg11.dtd">
<svg xmlns="http://www.w3.org/2000/svg" xmlns:xlink="http://www.w3.org/1999/xlink" version="1.1" id="Capa_1" x="0px" y="0px" width="512px" height="512px" viewBox="0 0 22 22" style="enable-background:new 0 0 22 22;" xml:space="preserve">
<g>
	<g>
		<path d="M4,18h14V4H4V18z M6,6h10v10H6V6z" fill="#FFFFFF"/>
		<polygon points="2,16 0,16 0,22 6,22 6,20 2,20   " fill="#FFFFFF"/>
		<polygon points="2,2 6,2 6,0 0,0 0,6 2,6   " fill="#FFFFFF"/>
		<polygon points="20,20 16,20 16,22 22,22 22,16 20,16   " fill="#FFFFFF"/>
		<polygon points="16,0 16,2 20,2 20,6 22,6 22,0   " fill="#FFFFFF"/>
	</g>
</g>
<g>
</g>
<g>
</g>
<g>
</g>
<g>
</g>
<g>
</g>
<g>
</g>
<g>
</g>
<g>
</g>
<g>
</g>
<g>
</g>
<g>
</g>
<g>
</g>
<g>
</g>
<g>
</g>
<g>
</g>
</svg>
