{
  "accessors": [
    {
      "bufferView": 1,
      "componentType": 5126,
      "count": 642,
      "max": [
        5.8926000595092773,
        3.5099999904632568,
        4.1318998336791992
      ],
      "min": [
        2.8525998592376709,
        0.47000002861022949,
        1.0918999910354614
      ],
      "type": "VEC3"
    },
    {
      "bufferView": 1,
      "byteOffset": 7704,
      "componentType": 5126,
      "count": 642,
      "max": [
        1,
        1,
        1
      ],
      "min": [
        -1,
        -1,
        -1
      ],
      "type": "VEC3"
    },
    {
      "bufferView": 0,
      "componentType": 5125,
      "count": 3840,
      "max": [
        641
      ],
      "min": [
        0
      ],
      "type": "SCALAR"
    },
    {
      "bufferView": 1,
      "byteOffset": 15408,
      "componentType": 5126,
      "count": 1284,
      "max": [
        4.9493999481201172,
        3.690000057220459,
        4.2470998764038086
      ],
      "min": [
        0.25679993629455566,
        0.28999996185302734,
        0.028500080108642578
      ],
      "type": "VEC3"
    },
    {
      "bufferView": 1,
      "byteOffset": 30816,
      "componentType": 5126,
      "count": 1284,
      "max": [
        1,
        1,
        1
      ],
      "min": [
        -1,
        -1,
        -1
      ],
      "type": "VEC3"
    },
    {
      "bufferView": 0,
      "byteOffset": 15360,
      "componentType": 5125,
      "count": 7680,
      "max": [
        1283
      ],
      "min": [
        0
      ],
      "type": "SCALAR"
    },
    {
      "bufferView": 1,
      "byteOffset": 46224,
      "componentType": 5126,
      "count": 1854,
      "max": [
        5.2557888031005859,
        2.9145090579986572,
        3.2361998558044434
      ],
      "min": [
        1.0630512237548828,
        1.0393999814987183,
        1.0509935617446899
      ],
      "type": "VEC3"
    },
    {
      "bufferView": 1,
      "byteOffset": 68472,
      "componentType": 5126,
      "count": 1854,
      "max": [
        1,
        1,
        1
      ],
      "min": [
        -1,
        -1,
        -1
      ],
      "type": "VEC3"
    },
    {
      "bufferView": 0,
      "byteOffset": 46080,
      "componentType": 5125,
      "count": 9408,
      "max": [
        1853
      ],
      "min": [
        0
      ],
      "type": "SCALAR"
    },
    {
      "bufferView": 1,
      "byteOffset": 90720,
      "componentType": 5126,
      "count": 1284,
      "max": [
        2.017399787902832,
        2.9405999183654785,
        3.2361998558044434
      ],
      "min": [
        1.8640998601913452,
        1.9293999671936035,
        2.4865000247955322
      ],
      "type": "VEC3"
    },
    {
      "bufferView": 1,
      "byteOffset": 106128,
      "componentType": 5126,
      "count": 1284,
      "max": [
        1,
        1,
        1
      ],
      "min": [
        -1,
        -1,
        -1
      ],
      "type": "VEC3"
    },
    {
      "bufferView": 0,
      "byteOffset": 83712,
      "componentType": 5125,
      "count": 7680,
      "max": [
        1283
      ],
      "min": [
        0
      ],
      "type": "SCALAR"
    },
    {
      "bufferView": 1,
      "byteOffset": 121536,
      "componentType": 5126,
      "count": 1284,
      "max": [
        2.017399787902832,
        2.0506000518798828,
        2.6076998710632324
      ],
      "min": [
        1.0393998622894287,
        1.9293999671936035,
        1.8127000331878662
      ],
      "type": "VEC3"
    },
    {
      "bufferView": 1,
      "byteOffset": 136944,
      "componentType": 5126,
      "count": 1284,
      "max": [
        1,
        1,
        1
      ],
      "min": [
        -1,
        -1,
        -1
      ],
      "type": "VEC3"
    },
    {
      "bufferView": 0,
      "byteOffset": 114432,
      "componentType": 5125,
      "count": 7680,
      "max": [
        1283
      ],
      "min": [
        0
      ],
      "type": "SCALAR"
    },
    {
      "bufferView": 1,
      "byteOffset": 152352,
      "componentType": 5126,
      "count": 1284,
      "max": [
        5.2884998321533203,
        2.0506000518798828,
        2.6076998710632324
      ],
      "min": [
        1.8961999416351318,
        1.9293999671936035,
        2.100100040435791
      ],
      "type": "VEC3"
    },
    {
      "bufferView": 1,
      "byteOffset": 167760,
      "componentType": 5126,
      "count": 1284,
      "max": [
        1,
        1,
        1
      ],
      "min": [
        -1,
        -1,
        -1
      ],
      "type": "VEC3"
    },
    {
      "bufferView": 0,
      "byteOffset": 145152,
      "componentType": 5125,
      "count": 7680,
      "max": [
        1283
      ],
      "min": [
        0
      ],
      "type": "SCALAR"
    },
    {
      "bufferView": 1,
      "byteOffset": 183168,
      "componentType": 5126,
      "count": 1284,
      "max": [
        3.309999942779541,
        2.0506000518798828,
        2.6076998710632324
      ],
      "min": [
        1.8961999416351318,
        1.9293999671936035,
        1.6678999662399292
      ],
      "type": "VEC3"
    },
    {
      "bufferView": 1,
      "byteOffset": 198576,
      "componentType": 5126,
      "count": 1284,
      "max": [
        1,
        1,
        1
      ],
      "min": [
        -1,
        -1,
        -1
      ],
      "type": "VEC3"
    },
    {
      "bufferView": 0,
      "byteOffset": 175872,
      "componentType": 5125,
      "count": 7680,
      "max": [
        1283
      ],
      "min": [
        0
      ],
      "type": "SCALAR"
    },
    {
      "bufferView": 1,
      "byteOffset": 213984,
      "componentType": 5126,
      "count": 1284,
      "max": [
        4.4331998825073242,
        2.0506000518798828,
        2.6724998950958252
      ],
      "min": [
        3.1887998580932617,
        1.9293999671936035,
        1.6678999662399292
      ],
      "type": "VEC3"
    },
    {
      "bufferView": 1,
      "byteOffset": 229392,
      "componentType": 5126,
      "count": 1284,
      "max": [
        1,
        1,
        1
      ],
      "min": [
        -1,
        -1,
        -1
      ],
      "type": "VEC3"
    },
    {
      "bufferView": 0,
      "byteOffset": 206592,
      "componentType": 5125,
      "count": 7680,
      "max": [
        1283
      ],
      "min": [
        0
      ],
      "type": "SCALAR"
    },
    {
      "bufferView": 1,
      "byteOffset": 244800,
      "componentType": 5126,
      "count": 1284,
      "max": [
        3.3420000076293945,
        2.0506000518798828,
        1.7890999317169189
      ],
      "min": [
        3.1887998580932617,
        1.0393999814987183,
        1.0393999814987183
      ],
      "type": "VEC3"
    },
    {
      "bufferView": 1,
      "byteOffset": 260208,
      "componentType": 5126,
      "count": 1284,
      "max": [
        1,
        1,
        1
      ],
      "min": [
        -1,
        -1,
        -1
      ],
      "type": "VEC3"
    },
    {
      "bufferView": 0,
      "byteOffset": 237312,
      "componentType": 5125,
      "count": 7680,
      "max": [
        1283
      ],
      "min": [
        0
      ],
      "type": "SCALAR"
    },
    {
      "bufferView": 1,
      "byteOffset": 275616,
      "componentType": 5126,
      "count": 1284,
      "max": [
        4.4331998825073242,
        2.9405999183654785,
        2.6724998950958252
      ],
      "min": [
        3.2207999229431152,
        1.9293999671936035,
        1.0393999814987183
      ],
      "type": "VEC3"
    },
    {
      "bufferView": 1,
      "byteOffset": 291024,
      "componentType": 5126,
      "count": 1284,
      "max": [
        1,
        1,
        1
      ],
      "min": [
        -1,
        -1,
        -1
      ],
      "type": "VEC3"
    },
    {
      "bufferView": 0,
      "byteOffset": 268032,
      "componentType": 5125,
      "count": 7680,
      "max": [
        1283
      ],
      "min": [
        0
      ],
      "type": "SCALAR"
    },
    {
      "bufferView": 1,
      "byteOffset": 306432,
      "componentType": 5126,
      "count": 1284,
      "max": [
        4.3814001083374023,
        3.9800000190734863,
        2.2000000476837158
      ],
      "min": [
        2.1813998222351074,
        0,
        0
      ],
      "type": "VEC3"
    },
    {
      "bufferView": 1,
      "byteOffset": 321840,
      "componentType": 5126,
      "count": 1284,
      "max": [
        1,
        1,
        1
      ],
      "min": [
        -1,
        -1,
        -1
      ],
      "type": "VEC3"
    },
    {
      "bufferView": 0,
      "byteOffset": 298752,
      "componentType": 5125,
      "count": 7680,
      "max": [
        1283
      ],
      "min": [
        0
      ],
      "type": "SCALAR"
    },
    {
      "bufferView": 1,
      "byteOffset": 337248,
      "componentType": 5126,
      "count": 1284,
      "max": [
        3.0246999263763428,
        3.9800000190734863,
        4.2755999565124512
      ],
      "min": [
        0.82469987869262695,
        0,
        2.0755999088287354
      ],
      "type": "VEC3"
    },
    {
      "bufferView": 1,
      "byteOffset": 352656,
      "componentType": 5126,
      "count": 1284,
      "max": [
        1,
        1,
        1
      ],
      "min": [
        -1,
        -1,
        -1
      ],
      "type": "VEC3"
    },
    {
      "bufferView": 0,
      "byteOffset": 329472,
      "componentType": 5125,
      "count": 7680,
      "max": [
        1283
      ],
      "min": [
        0
      ],
      "type": "SCALAR"
    },
    {
      "bufferView": 1,
      "byteOffset": 368064,
      "componentType": 5126,
      "count": 1284,
      "max": [
        6.3278999328613281,
        3.0900001525878906,
        3.260699987411499
      ],
      "min": [
        0,
        0.88999998569488525,
        0.7732999324798584
      ],
      "type": "VEC3"
    },
    {
      "bufferView": 1,
      "byteOffset": 383472,
      "componentType": 5126,
      "count": 1284,
      "max": [
        1,
        1,
        1
      ],
      "min": [
        -1,
        -1,
        -1
      ],
      "type": "VEC3"
    },
    {
      "bufferView": 0,
      "byteOffset": 360192,
      "componentType": 5125,
      "count": 7680,
      "max": [
        1283
      ],
      "min": [
        0
      ],
      "type": "SCALAR"
    }
  ],
  "asset": {
    "extras": {
      "author": "Edumol (https://sketchfab.com/edumol)",
      "license": "CC-BY-4.0 (http://creativecommons.org/licenses/by/4.0/)",
      "source": "https://sketchfab.com/models/6348a279cdfd49eebbc0b9edbbfba186",
      "title": "Ethanol"
    },
    "generator": "Sketchfab-3.18.5",
    "version": "2.0"
  },
  "bufferViews": [
    {
      "buffer": 0,
      "byteLength": 390912,
      "byteOffset": 0,
      "name": "floatBufferViews",
      "target": 34963
    },
    {
      "buffer": 0,
      "byteLength": 398880,
      "byteOffset": 390912,
      "byteStride": 12,
      "name": "floatBufferViews",
      "target": 34962
    }
  ],
  "buffers": [
    {
      "byteLength": 789792,
      "uri": "scene.bin"
    }
  ],
  "materials": [
    {
      "doubleSided": true,
      "emissiveFactor": [
        0,
        0,
        0
      ],
      "name": "k909090",
      "pbrMetallicRoughness": {
        "baseColorFactor": [
          0.18648417910000001,
          0.18648417910000001,
          0.18648417910000001,
          1
        ],
        "metallicFactor": 0,
        "roughnessFactor": 0.59999999999999998
      }
    },
    {
      "doubleSided": true,
      "emissiveFactor": [
        0,
        0,
        0
      ],
      "name": "kc0c0c0",
      "pbrMetallicRoughness": {
        "baseColorFactor": [
          0.754,
          0.754,
          0.754,
          1
        ],
        "metallicFactor": 0,
        "roughnessFactor": 0.59999999999999998
      }
    },
    {
      "doubleSided": true,
      "emissiveFactor": [
        0,
        0,
        0
      ],
      "name": "kff0d0d",
      "pbrMetallicRoughness": {
        "baseColorFactor": [
          1,
          0.055,
          0.055,
          1
        ],
        "metallicFactor": 0,
        "roughnessFactor": 0.59999999999999998
      }
    },
    {
      "doubleSided": true,
      "emissiveFactor": [
        0,
        0,
        0
      ],
      "name": "kffffff",
      "pbrMetallicRoughness": {
        "baseColorFactor": [
          1,
          1,
          1,
          1
        ],
        "metallicFactor": 0,
        "roughnessFactor": 0.59999999999999998
      }
    }
  ],
  "meshes": [
    {
      "primitives": [
        {
          "attributes": {
            "NORMAL": 1,
            "POSITION": 0
          },
          "indices": 2,
          "material": 2,
          "mode": 4
        }
      ]
    },
    {
      "primitives": [
        {
          "attributes": {
            "NORMAL": 4,
            "POSITION": 3
          },
          "indices": 5,
          "material": 0,
          "mode": 4
        }
      ]
    },
    {
      "primitives": [
        {
          "attributes": {
            "NORMAL": 7,
            "POSITION": 6
          },
          "indices": 8,
          "material": 1,
          "mode": 4
        }
      ]
    },
    {
      "primitives": [
        {
          "attributes": {
            "NORMAL": 10,
            "POSITION": 9
          },
          "indices": 11,
          "material": 1,
          "mode": 4
        }
      ]
    },
    {
      "primitives": [
        {
          "attributes": {
            "NORMAL": 13,
            "POSITION": 12
          },
          "indices": 14,
          "material": 1,
          "mode": 4
        }
      ]
    },
    {
      "primitives": [
        {
          "attributes": {
            "NORMAL": 16,
            "POSITION": 15
          },
          "indices": 17,
          "material": 1,
          "mode": 4
        }
      ]
    },
    {
      "primitives": [
        {
          "attributes": {
            "NORMAL": 19,
            "POSITION": 18
          },
          "indices": 20,
          "material": 1,
          "mode": 4
        }
      ]
    },
    {
      "primitives": [
        {
          "attributes": {
            "NORMAL": 22,
            "POSITION": 21
          },
          "indices": 23,
          "material": 1,
          "mode": 4
        }
      ]
    },
    {
      "primitives": [
        {
          "attributes": {
            "NORMAL": 25,
            "POSITION": 24
          },
          "indices": 26,
          "material": 1,
          "mode": 4
        }
      ]
    },
    {
      "primitives": [
        {
          "attributes": {
            "NORMAL": 28,
            "POSITION": 27
          },
          "indices": 29,
          "material": 1,
          "mode": 4
        }
      ]
    },
    {
      "primitives": [
        {
          "attributes": {
            "NORMAL": 31,
            "POSITION": 30
          },
          "indices": 32,
          "material": 3,
          "mode": 4
        }
      ]
    },
    {
      "primitives": [
        {
          "attributes": {
            "NORMAL": 34,
            "POSITION": 33
          },
          "indices": 35,
          "material": 3,
          "mode": 4
        }
      ]
    },
    {
      "primitives": [
        {
          "attributes": {
            "NORMAL": 37,
            "POSITION": 36
          },
          "indices": 38,
          "material": 3,
          "mode": 4
        }
      ]
    }
  ],
  "nodes": [
    {
      "children": [
        1
      ],
      "name": "RootNode (gltf orientation matrix)",
      "rotation": [
        -0.70710678118654746,
        -0,
        -0,
        0.70710678118654757
      ]
    },
    {
      "children": [
        2
      ],
      "name": "RootNode (model correction matrix)"
    },
    {
      "children": [
        3,
        4,
        5,
        6,
        7,
        8,
        9,
        10,
        11,
        12,
        13,
        14,
        15
      ],
      "matrix": [
        1,
        0,
        0,
        0,
        0,
        1,
        0,
        0,
        0,
        0,
        1,
        0,
        -3.2421998977661133,
        -1.9900000095367432,
        -2.2971999645233154,
        1
      ],
      "name": "ethanol.obj.cleaner.gles"
    },
    {
      "mesh": 0,
      "name": ""
    },
    {
      "mesh": 1,
      "name": ""
    },
    {
      "mesh": 2,
      "name": ""
    },
    {
      "mesh": 3,
      "name": ""
    },
    {
      "mesh": 4,
      "name": ""
    },
    {
      "mesh": 5,
      "name": ""
    },
    {
      "mesh": 6,
      "name": ""
    },
    {
      "mesh": 7,
      "name": ""
    },
    {
      "mesh": 8,
      "name": ""
    },
    {
      "mesh": 9,
      "name": ""
    },
    {
      "mesh": 10,
      "name": ""
    },
    {
      "mesh": 11,
      "name": ""
    },
    {
      "mesh": 12,
      "name": ""
    }
  ],
  "scene": 0,
  "scenes": [
    {
      "name": "OSG_Scene",
      "nodes": [
        0
      ]
    }
  ]
}

