{
  "accessors": [
    {
      "bufferView": 1,
      "componentType": 5126,
      "count": 103,
      "max": [
        6.5600099563598633,
        16.010000228881836,
        1.0700000524520874
      ],
      "min": [
        3.5600099563598633,
        10.010000228881836,
        0.46999898552894592
      ],
      "type": "VEC3"
    },
    {
      "bufferView": 1,
      "byteOffset": 1236,
      "componentType": 5126,
      "count": 103,
      "max": [
        1,
        1,
        1
      ],
      "min": [
        -1,
        -1,
        -1
      ],
      "type": "VEC3"
    },
    {
      "bufferView": 2,
      "componentType": 5126,
      "count": 103,
      "max": [
        1,
        1,
        0.98713678121566772,
        1
      ],
      "min": [
        -1,
        -1,
        -0.00020183967717457563,
        1
      ],
      "type": "VEC4"
    },
    {
      "bufferView": 0,
      "componentType": 5125,
      "count": 198,
      "max": [
        102
      ],
      "min": [
        0
      ],
      "type": "SCALAR"
    },
    {
      "bufferView": 1,
      "byteOffset": 2472,
      "componentType": 5126,
      "count": 96,
      "max": [
        6.309999942779541,
        16.360000610351562,
        0.070000000298023224
      ],
      "min": [
        2.8100099563598633,
        9.6599998474121094,
        -0.33000001311302185
      ],
      "type": "VEC3"
    },
    {
      "bufferView": 1,
      "byteOffset": 3624,
      "componentType": 5126,
      "count": 96,
      "max": [
        1,
        1,
        1
      ],
      "min": [
        -1,
        -1,
        -1
      ],
      "type": "VEC3"
    },
    {
      "bufferView": 2,
      "byteOffset": 1648,
      "componentType": 5126,
      "count": 96,
      "max": [
        0,
        1,
        1,
        1
      ],
      "min": [
        0,
        -1,
        -1,
        1
      ],
      "type": "VEC4"
    },
    {
      "bufferView": 0,
      "byteOffset": 792,
      "componentType": 5125,
      "count": 144,
      "max": [
        95
      ],
      "min": [
        0
      ],
      "type": "SCALAR"
    },
    {
      "bufferView": 1,
      "byteOffset": 4776,
      "componentType": 5126,
      "count": 1367,
      "max": [
        6.5600099563598633,
        16.610000610351562,
        3.6700000762939453
      ],
      "min": [
        2.559999942779541,
        9.4099502563476562,
        0.069998301565647125
      ],
      "type": "VEC3"
    },
    {
      "bufferView": 1,
      "byteOffset": 21180,
      "componentType": 5126,
      "count": 1367,
      "max": [
        1,
        1,
        1
      ],
      "min": [
        -1,
        -1,
        -1
      ],
      "type": "VEC3"
    },
    {
      "bufferView": 2,
      "byteOffset": 3184,
      "componentType": 5126,
      "count": 1367,
      "max": [
        1,
        1,
        0.98605453968048096,
        1
      ],
      "min": [
        -1,
        -1,
        -0.74674296379089355,
        1
      ],
      "type": "VEC4"
    },
    {
      "bufferView": 0,
      "byteOffset": 1368,
      "componentType": 5125,
      "count": 3513,
      "max": [
        1366
      ],
      "min": [
        0
      ],
      "type": "SCALAR"
    }
  ],
  "asset": {
    "extras": {
      "author": "Theodore Chernov (https://sketchfab.com/ueltd)",
      "license": "CC-BY-4.0 (http://creativecommons.org/licenses/by/4.0/)",
      "source": "https://sketchfab.com/models/76d59463141e47e590d2e0f2db578395",
      "title": "Low- Poly Couch"
    },
    "generator": "Sketchfab-3.18.7",
    "version": "2.0"
  },
  "bufferViews": [
    {
      "buffer": 0,
      "byteLength": 15420,
      "byteOffset": 0,
      "name": "floatBufferViews",
      "target": 34963
    },
    {
      "buffer": 0,
      "byteLength": 37584,
      "byteOffset": 15420,
      "byteStride": 12,
      "name": "floatBufferViews",
      "target": 34962
    },
    {
      "buffer": 0,
      "byteLength": 25056,
      "byteOffset": 53004,
      "byteStride": 16,
      "name": "floatBufferViews",
      "target": 34962
    }
  ],
  "buffers": [
    {
      "byteLength": 78060,
      "uri": "scene.bin"
    }
  ],
  "materials": [
    {
      "doubleSided": true,
      "emissiveFactor": [
        0,
        0,
        0
      ],
      "name": "Foot1Mtl",
      "pbrMetallicRoughness": {
        "baseColorFactor": [
          0.0915184,
          0.051122099999999997,
          0.0328759,
          1
        ],
        "metallicFactor": 0,
        "roughnessFactor": 0.98687877099999999
      }
    },
    {
      "doubleSided": true,
      "emissiveFactor": [
        0,
        0,
        0
      ],
      "name": "Seat1Mtl",
      "pbrMetallicRoughness": {
        "baseColorFactor": [
          0.000107187,
          0.43681300000000001,
          0.84336999999999995,
          1
        ],
        "metallicFactor": 0,
        "roughnessFactor": 0.91611228040000003
      }
    }
  ],
  "meshes": [
    {
      "primitives": [
        {
          "attributes": {
            "NORMAL": 1,
            "POSITION": 0,
            "TANGENT": 2
          },
          "indices": 3,
          "material": 1,
          "mode": 4
        }
      ]
    },
    {
      "primitives": [
        {
          "attributes": {
            "NORMAL": 5,
            "POSITION": 4,
            "TANGENT": 6
          },
          "indices": 7,
          "material": 0,
          "mode": 4
        }
      ]
    },
    {
      "primitives": [
        {
          "attributes": {
            "NORMAL": 9,
            "POSITION": 8,
            "TANGENT": 10
          },
          "indices": 11,
          "material": 1,
          "mode": 4
        }
      ]
    }
  ],
  "nodes": [
    {
      "children": [
        1
      ],
      "name": "RootNode (gltf orientation matrix)",
      "rotation": [
        -0.70710678118654746,
        -0,
        -0,
        0.70710678118654757
      ]
    },
    {
      "children": [
        2
      ],
      "name": "RootNode (model correction matrix)"
    },
    {
      "children": [
        3,
        4,
        5
      ],
      "name": "xdd.obj.cleaner.materialmerger.gles"
    },
    {
      "mesh": 0,
      "name": ""
    },
    {
      "mesh": 1,
      "name": ""
    },
    {
      "mesh": 2,
      "name": ""
    }
  ],
  "scene": 0,
  "scenes": [
    {
      "name": "OSG_Scene",
      "nodes": [
        0
      ]
    }
  ]
}

